<?xml version="1.0" encoding="UTF-8" standalone="no"?>
<!-- Created with Inkscape (http://www.inkscape.org/) -->

<svg
   width="127.31576mm"
   height="120.30268mm"
   viewBox="0 0 127.31576 120.30268"
   version="1.1"
   id="svg1"
   xml:space="preserve"
   inkscape:version="1.4.2 (ebf0e940d0, 2025-05-08)"
   sodipodi:docname="alts_logo.svg"
   xmlns:inkscape="http://www.inkscape.org/namespaces/inkscape"
   xmlns:sodipodi="http://sodipodi.sourceforge.net/DTD/sodipodi-0.dtd"
   xmlns="http://www.w3.org/2000/svg"
   xmlns:svg="http://www.w3.org/2000/svg"><sodipodi:namedview
     id="namedview1"
     pagecolor="#505050"
     bordercolor="#eeeeee"
     borderopacity="1"
     inkscape:showpageshadow="0"
     inkscape:pageopacity="0"
     inkscape:pagecheckerboard="0"
     inkscape:deskcolor="#505050"
     inkscape:document-units="mm"
     inkscape:zoom="1.104894"
     inkscape:cx="164.26915"
     inkscape:cy="157.02863"
     inkscape:window-width="1756"
     inkscape:window-height="916"
     inkscape:window-x="0"
     inkscape:window-y="0"
     inkscape:window-maximized="1"
     inkscape:current-layer="layer1" /><defs
     id="defs1" /><g
     inkscape:label="Layer 1"
     inkscape:groupmode="layer"
     id="layer1"
     transform="translate(-36.354512,-76.442923)"><path
       style="fill:#ffffff"
       d="m 90.878725,195.68503 c -1.589258,-0.65367 -3.121758,-1.10742 -3.405554,-1.00833 -0.283796,0.0991 -0.515993,0.0201 -0.515993,-0.17545 0,-0.19558 -0.325076,-0.45576 -0.72239,-0.57816 -0.397315,-0.12241 -4.066026,-1.46866 -8.15269,-2.99167 -4.086665,-1.52301 -8.869921,-3.26382 -10.629457,-3.86848 -4.127641,-1.41843 -4.051441,-1.56501 1.169674,-2.24995 4.368832,-0.57313 4.368832,-0.57313 1.754377,-1.57265 -1.437951,-0.54973 -3.307899,-1.3433 -4.15544,-1.76348 -0.847542,-0.42018 -1.776329,-0.70551 -2.063972,-0.63406 -0.287643,0.0714 -0.378422,0.0493 -0.20173,-0.0491 0.520927,-0.29025 -5.566602,-3.0794 -6.191676,-2.83687 -0.313926,0.1218 -0.474361,0.0637 -0.356522,-0.12906 0.11784,-0.19279 -3.07463,-1.87435 -7.094376,-3.73681 -8.787888,-4.07167 -8.74018,-4.38885 1.111114,-7.38709 0.804911,-0.24498 0.283139,-0.48859 -2.683164,-1.25275 -2.025311,-0.52175 -5.258211,-1.72304 -7.184223,-2.66954 -1.926012,-0.9465 -3.777925,-1.61378 -4.115362,-1.48285 -0.337438,0.13092 -0.482754,0.10582 -0.322926,-0.0558 0.159829,-0.16161 -0.01133,-0.51706 -0.380352,-0.78989 -0.610751,-0.45155 -0.554621,-0.89527 0.625608,-4.94548 0.713107,-2.44719 1.872782,-6.4685 2.577057,-8.93626 0.704275,-2.46776 1.727644,-5.9576 2.274155,-7.75519 0.546511,-1.7976 0.88811,-3.44103 0.759111,-3.65208 -0.129,-0.21104 -0.04921,-0.38371 0.177318,-0.38371 0.226525,0 0.544071,-0.89215 0.705658,-1.98256 0.225296,-1.52031 0.784601,-2.59027 2.398862,-4.58905 7.605699,-9.41741 7.566008,-9.2411 0.742234,-3.29709 -5.364825,4.67316 -5.277918,5.04534 -2.178814,-9.33078 0.420637,-1.95125 1.357338,-6.45896 2.081557,-10.01712 0.72422,-3.55816 1.671797,-8.159777 2.105729,-10.225808 0.433931,-2.066031 1.178155,-5.820979 1.65383,-8.34433 0.889347,-4.717787 1.148291,-5.203174 2.781624,-5.214127 0.524232,-0.0035 0.849051,-0.176696 0.72182,-0.384846 -0.127231,-0.208151 0.104153,-0.289751 0.514186,-0.181334 0.410032,0.108417 2.871575,-0.356006 5.470095,-1.032052 2.598521,-0.676045 6.52982,-1.667017 8.736221,-2.202159 2.206401,-0.535142 3.851471,-1.074295 3.65571,-1.198117 -0.195761,-0.123823 0.813823,-0.263399 2.243519,-0.31017 2.514125,-0.08225 2.607901,-0.048 2.856987,1.04345 1.65176,7.237687 2.00958,8.161153 2.786395,7.19117 0.410688,-0.512812 0.626121,-1.129662 0.478741,-1.370778 -0.147381,-0.241116 -0.07833,-0.319891 0.153441,-0.175056 0.591018,0.369327 1.920383,-1.22039 1.540387,-1.842067 -0.196592,-0.321627 -0.138149,-0.400395 0.159208,-0.214577 0.258402,0.161476 3.135823,-0.185146 6.394268,-0.770271 3.258446,-0.585125 6.430324,-1.063863 7.048619,-1.063863 0.618296,0 1.020076,-0.170305 0.892845,-0.378456 -0.127231,-0.208151 0.112997,-0.287412 0.53384,-0.176137 0.420843,0.111276 1.83006,0.0033 3.131596,-0.239998 1.93204,-0.361124 2.58731,-0.326825 3.56974,0.186855 0.66182,0.346045 1.20332,0.532175 1.20332,0.413622 0,-0.118553 0.88235,0.32986 1.96077,0.996472 1.07843,0.666612 2.33229,1.275294 2.78636,1.352627 0.45408,0.07733 0.92288,0.270744 1.04178,0.429804 0.5217,0.69788 7.09636,3.671956 7.54372,3.412431 0.27279,-0.158254 0.35157,-0.127262 0.17508,0.06887 -0.43631,0.484846 9.96999,5.614364 10.76451,5.30609 0.36607,-0.142036 0.52301,-0.06831 0.37389,0.175655 -0.224,0.366467 6.63665,4.123824 8.06046,4.414459 0.28786,0.05876 0.61626,0.222468 0.72978,0.3638 0.53756,0.669269 3.80112,2.036716 4.2453,1.778802 0.27601,-0.160266 0.35494,-0.128407 0.17541,0.0708 -0.31467,0.349133 13.4145,7.382389 14.46463,7.410029 0.2838,0.007 0.516,0.13556 0.516,0.28465 0,0.14909 1.16098,0.81641 2.57996,1.48294 1.41898,0.66653 2.63688,1.24381 2.70644,1.28285 0.0696,0.039 -0.14197,0.98385 -0.47007,2.09958 -3.00235,10.20968 -3.77414,12.80527 -4.47862,15.06182 -0.44622,1.42931 -0.67605,2.82003 -0.51073,3.09049 0.18838,0.3082 0.12269,0.38059 -0.176,0.19394 -0.28299,-0.17684 -0.47657,-0.0314 -0.47657,0.35797 0,0.57575 -1.79638,6.93111 -5.25542,18.59296 -0.57876,1.95126 -1.29786,4.45345 -1.59799,5.56043 -0.30013,1.10699 -1.02431,3.64257 -1.6093,5.63463 -0.58498,1.99206 -1.63236,5.59405 -2.32749,8.00442 -0.69514,2.41037 -1.69108,5.79115 -2.21322,7.51284 -0.52213,1.72169 -1.28381,4.3742 -1.69262,5.89446 -0.77783,2.89251 -8.13187,5.21174 -16.14601,5.09196 -2.56563,-0.0384 -2.56563,-0.0384 -1.9159,1.47873 1.211,2.82759 1.19858,2.90151 -0.53397,3.17871 -2.57849,0.41254 -14.85807,2.68746 -19.54577,3.62105 -2.38389,0.47476 -4.752166,0.88904 -5.262839,0.92061 -0.578874,0.0358 -0.928605,0.32638 -0.928787,0.77173 -2.67e-4,0.653 -1.002573,1.08191 -4.128236,1.76659 -0.340555,0.0746 -1.919494,-0.39919 -3.508753,-1.05286 z m 3.107041,-0.48895 c 0.0061,-0.28695 0.462395,-3.14375 1.014,-6.34845 1.218668,-7.08019 2.365188,-6.41224 -8.765196,-5.10648 -5.164971,0.60593 -11.675853,1.32226 -14.468628,1.59185 -5.077773,0.49016 -5.077773,0.49016 -2.889561,1.29679 2.767723,1.02024 7.189336,2.63329 10.650497,3.8854 1.47574,0.53387 4.982975,1.82486 7.793855,2.86887 2.81088,1.04401 5.272167,1.79729 5.469526,1.67396 0.19736,-0.12333 0.358836,-0.0253 0.358836,0.21777 0,0.6292 0.823279,0.55076 0.836671,-0.0797 z m 3.304767,-0.26257 c 0.12094,-0.14254 0.04352,-2.41909 -0.172041,-5.05902 -0.406601,-4.97952 -0.880453,-4.05983 -2.104406,4.08439 -0.258078,1.71725 1.138843,2.31532 2.276447,0.97463 z m 9.651067,-2.97835 c 7.26353,-1.37637 17.58075,-3.42959 17.57837,-3.49826 -0.001,-0.0408 -1.51316,-4.00351 -3.40811,-8.93358 -0.60578,-1.57607 -0.95782,-2.05618 -1.22416,-1.66952 -0.25587,0.37147 -0.29957,0.27241 -0.13847,-0.31392 0.12946,-0.47116 -0.13701,-1.63597 -0.59215,-2.58846 -0.45514,-0.95249 -0.82752,-1.93494 -0.82752,-2.18322 0,-0.24828 -0.4644,-1.37804 -1.03199,-2.51057 -0.56759,-1.13253 -1.03199,-2.35821 -1.03199,-2.72373 0,-0.36551 -0.16478,-0.5616 -0.36618,-0.43574 -0.20141,0.12585 -0.34073,-0.004 -0.3096,-0.28841 0.25144,-2.29805 -4.05137,-10.74282 -5.47149,-10.73844 -4.79429,0.0148 -4.32629,-0.72051 -7.70106,12.09942 -0.8158,3.09905 -1.95351,7.29587 -2.528229,9.32626 -0.837732,2.95958 -0.998225,4.24248 -0.809334,6.46939 0.129588,1.52777 0.241399,4.23337 0.248469,6.01245 0.0086,2.17223 0.170477,3.2347 0.492737,3.2347 0.263937,0 3.468247,-0.56627 7.120707,-1.25837 z m 30.97574,-9.40049 c 3.1395,-0.59764 3.92121,-1.02882 3.93518,-2.17058 0.003,-0.28421 0.57771,-2.32031 1.27607,-4.52468 0.69837,-2.20437 1.16437,-4.1145 1.03557,-4.24474 -0.1288,-0.13023 -0.0748,-0.44189 0.12008,-0.69257 0.40386,-0.51958 1.79,-4.7753 2.66345,-8.17731 0.32416,-1.26257 1.28874,-4.64335 2.14352,-7.51284 0.85477,-2.86948 1.97312,-6.71981 2.48522,-8.55629 1.16683,-4.18445 2.5499,-8.9564 4.53641,-15.65174 0.85137,-2.86949 1.97186,-6.71982 2.48996,-8.55629 2.51193,-8.90379 3.46284,-12.1914 3.72934,-12.89362 0.3327,-0.87664 0.84239,-0.9194 -9.32785,0.78269 -3.29204,0.55096 -9.70067,1.58421 -14.24141,2.29611 -18.29706,2.86865 -20.84612,3.40104 -20.84612,4.35386 0,0.29798 -0.6568,2.77552 -1.45957,5.50565 -0.80276,2.73013 -1.89734,6.46644 -2.43239,8.30291 -0.53506,1.83647 -1.45484,4.95539 -2.04397,6.93093 -1.07113,3.5919 -1.07113,3.5919 -0.0666,6.05201 0.55248,1.35306 2.07882,5.30883 3.39187,8.79059 1.31304,3.48177 2.52835,6.24237 2.70068,6.13468 0.17234,-0.10769 0.22229,0.0487 0.11101,0.3476 -0.28006,0.75218 2.05467,6.67226 2.47815,6.28377 0.18852,-0.17293 0.19913,-0.0633 0.0236,0.24371 -0.18351,0.32087 0.12014,1.65163 0.71426,3.13035 0.56841,1.41472 1.6357,4.16869 2.37177,6.11994 0.73607,1.95125 1.77805,4.64008 2.31552,5.97518 0.53746,1.33509 0.9772,2.66634 0.9772,2.95834 0,0.56304 3.69393,0.14772 10.9191,-1.22766 z M 85.925192,180.493 c 3.859628,-0.11233 8.235561,-0.20739 9.724295,-0.21124 2.70679,-0.007 2.70679,-0.007 3.447955,-3.03302 0.407641,-1.6643 1.198608,-4.59593 1.757698,-6.51474 0.5591,-1.91881 0.92197,-3.73793 0.80638,-4.04249 -0.11559,-0.30456 -0.0782,-0.61284 0.0831,-0.68506 0.78215,-0.35019 2.61024,-8.31988 2.06457,-9.00062 -0.33596,-0.41912 -0.35877,-0.56804 -0.0592,-0.38636 2.53604,1.53794 0.0184,-1.0982 -3.07773,-3.22259 -3.470795,-2.38146 -10.36898,-3.26834 -8.176186,-1.05119 0.09426,0.0953 -0.231087,0.19798 -0.723001,0.22815 -0.491913,0.0302 -2.659084,0.75281 -4.815935,1.60587 -2.156851,0.85307 -4.812657,1.86819 -5.90179,2.25584 -1.089134,0.38764 -1.832164,0.86899 -1.651178,1.06966 0.183062,0.20297 0.09302,0.2272 -0.202948,0.0546 -0.577799,-0.33695 -4.211048,1.00606 -4.213575,1.55753 -8.52e-4,0.18572 -0.185188,0.22291 -0.409638,0.0827 -0.538256,-0.33635 -6.220536,1.91586 -5.950064,2.35835 0.115014,0.18817 -0.07148,0.23325 -0.414439,0.10018 -0.342955,-0.13306 -2.07086,0.3316 -3.839788,1.03259 -6.284825,2.49055 -8.729438,3.39271 -9.19332,3.39271 -0.258472,0 -0.337407,0.21684 -0.175411,0.48187 0.18696,0.30587 0.112738,0.36826 -0.203209,0.17083 -0.273762,-0.17108 -1.649205,0.15905 -3.05654,0.73362 -1.407335,0.57456 -3.638544,1.46339 -4.958242,1.97517 -2.399452,0.93051 -2.399452,0.93051 -1.238384,1.46097 0.638588,0.29176 2.925764,1.36699 5.082615,2.38941 2.156851,1.02243 5.494708,2.58838 7.417459,3.4799 1.922752,0.89152 4.709114,2.21548 6.191917,2.94215 3.021605,1.48077 0.517737,1.39126 21.684549,0.77525 z M 49.017335,162.37165 c 6.548332,-2.27847 15.449313,-5.41316 23.28564,-8.20059 4.313702,-1.5344 9.143397,-3.23452 10.732656,-3.77803 5.756857,-1.96881 10.041815,-3.47184 17.130969,-6.00903 3.97315,-1.42198 7.83216,-2.78878 8.57558,-3.03735 1.22123,-0.40832 1.4339,-0.73692 2.20359,-3.40478 0.46855,-1.62406 1.21244,-4.09713 1.65309,-5.49569 0.44065,-1.39857 0.73334,-2.80723 0.65043,-3.13035 -0.0829,-0.32313 -0.0628,-0.41631 0.0446,-0.20707 0.19377,0.37733 1.06699,1.41173 2.94678,-5.49611 0.91786,-3.37295 -3.27989,-7.63753 -7.08625,-7.19907 -0.29894,0.0344 -0.44638,-0.0356 -0.32766,-0.15565 0.23336,-0.23595 -0.78855,-0.77544 -11.663466,-6.15751 -3.94257,-1.95121 -7.361346,-3.42702 -7.597278,-3.27958 -0.235933,0.14743 -0.332337,0.0982 -0.214231,-0.10947 0.888786,-1.56254 -3.452178,-2.06713 -5.378764,-0.62522 -4.720667,3.53308 -5.641278,4.31515 -5.53404,4.70124 0.06239,0.22461 -0.04932,0.30668 -0.248239,0.18237 -0.459776,-0.28731 -5.329423,3.13585 -6.6184,4.65247 -0.53575,0.63037 -0.84147,0.89761 -0.679379,0.59388 0.370034,-0.69337 -6.045079,4.046 -8.216085,6.0699 -0.887516,0.82738 -1.459298,1.23912 -1.270625,0.91499 0.248206,-0.42641 0.123718,-0.40556 -0.450306,0.0754 -0.952562,0.79815 -11.146428,8.41578 -13.866406,10.36203 -1.946086,1.3925 -2.466929,-1.61805 -1.960491,-0.28363 0.156176,0.41151 0.108582,0.62297 -0.109533,0.48667 -0.212141,-0.13256 -0.907408,1.57397 -1.545038,3.7923 -0.637629,2.21833 -1.600451,5.53589 -2.139604,7.37236 -0.814598,2.7747 -2.050975,7.08065 -3.894904,13.56485 -0.323323,1.13697 3.561481,3.70398 4.650241,3.0728 0.270354,-0.15674 0.352083,-0.12949 0.181618,0.0605 -0.251357,0.28021 2.107196,1.71342 3.030345,1.84144 0.134003,0.0186 1.80582,-0.50977 3.71515,-1.17412 z m 57.353925,-9.12225 c 0.0199,-1.14217 0.78825,-6.88131 1.02011,-7.61996 0.14242,-0.45368 -1.26112,0.0689 -4.43702,1.65214 -4.645325,2.31574 -4.645325,2.31574 -0.93017,4.46392 4.2558,2.46079 4.32994,2.48644 4.34708,1.5039 z m 3.7357,0.26682 c 1.17585,-0.25497 1.97446,-0.58366 1.77469,-0.73041 -0.19976,-0.14676 -0.40869,-0.55548 -0.46429,-0.90828 -0.0556,-0.35281 -0.74118,-1.85279 -1.52352,-3.3333 -1.47196,-2.78557 -2.20227,-2.78853 -1.79855,-0.007 0.0978,0.67374 0.0257,1.1299 -0.16029,1.0137 -0.18595,-0.11621 -0.34014,0.12849 -0.34264,0.54377 -0.002,0.41527 -0.11969,1.45937 -0.26041,2.32022 -0.28924,1.76933 -0.29459,1.76721 2.77501,1.10158 z M 47.421883,123.01287 c -0.06238,-0.21923 0.03837,-0.30374 0.223909,-0.1878 0.185535,0.11594 1.187108,-0.57809 2.225719,-1.54229 1.038611,-0.96421 4.134419,-3.70521 6.879572,-6.09113 2.745154,-2.38592 4.877359,-4.52426 4.738234,-4.75187 -0.139125,-0.22761 -0.06644,-0.29729 0.161518,-0.15483 0.362336,0.22642 4.123893,-2.68482 5.280136,-4.08654 0.230159,-0.27902 2.972627,-2.71386 6.094372,-5.41075 3.162533,-2.732132 5.556273,-5.099157 5.405746,-5.34542 -0.159314,-0.260639 -0.07332,-0.318976 0.209586,-0.142185 0.263858,0.164884 0.756784,0.01967 1.095392,-0.3227 0.545671,-0.551733 0.242246,-0.768089 -2.669416,-1.903418 -1.806787,-0.704511 -3.89639,-1.556425 -4.643563,-1.893143 -3.712256,-1.672952 -7.876868,-3.121251 -8.269568,-2.875854 -0.25994,0.162437 -0.319703,0.07775 -0.145852,-0.206668 0.165147,-0.270181 0.05716,-0.483458 -0.245815,-0.485487 -0.297196,-0.002 -2.996529,-1.017201 -5.998518,-2.256023 -5.458163,-2.252404 -5.458163,-2.252404 -5.714344,-0.726796 -0.140899,0.839084 -0.699309,3.591638 -1.240911,6.116787 -1.170869,5.45903 -2.351303,11.322247 -3.485492,17.312437 -0.455462,2.40551 -1.104647,5.50456 -1.442632,6.88677 -0.337986,1.38221 -0.879321,4.01568 -1.202967,5.85215 -0.323646,1.83647 -0.727286,3.99391 -0.896977,4.79431 -0.30853,1.45527 -0.30853,1.45527 1.723384,-0.36284 1.117552,-0.99996 1.980871,-1.99748 1.918487,-2.21671 z m 80.718657,-9.53776 c 4.25303,-0.69905 10.42626,-1.71743 13.7183,-2.26306 3.29203,-0.54563 6.91431,-1.11156 8.04949,-1.25762 6.87545,-0.88464 11.49104,-2.00338 10.69669,-2.5927 -0.43429,-0.3222 -1.11496,-0.50043 -1.51258,-0.39607 -0.39763,0.10436 -0.63833,0.0513 -0.53489,-0.11793 0.10343,-0.16922 -0.96442,-0.88273 -2.373,-1.58557 -9.39401,-4.68733 -15.44402,-7.60855 -15.97689,-7.714368 -0.34055,-0.06763 -0.71333,-0.247947 -0.82838,-0.400708 -0.36254,-0.481353 -27.21694,-13.879101 -27.86083,-13.899861 -0.22704,-0.0073 -0.50568,-0.128944 -0.61919,-0.270276 -0.52561,-0.654385 -3.79404,-2.038594 -4.20589,-1.78123 -0.25433,0.158931 -0.35,0.105049 -0.2126,-0.119737 0.86774,-1.419621 -3.26636,-2.1896 -7.616744,-1.418625 -2.348583,0.416217 -6.44119,1.091141 -9.094682,1.499831 -6.226117,0.958946 -5.851023,0.616847 -5.297919,4.831888 1.748734,13.326568 3.172006,16.243576 7.776402,15.937816 0.298932,-0.0199 0.44511,0.0634 0.32484,0.18501 -0.364798,0.36885 9.660513,5.169 10.152963,4.86127 0.25195,-0.15745 0.34936,-0.10838 0.21646,0.10904 -0.13289,0.21741 2.02106,1.48356 4.78656,2.81365 2.7655,1.3301 5.3997,2.62777 5.85377,2.88371 4.26213,2.40239 4.19349,2.39911 14.55812,0.69554 z M 79.741505,89.807648 c -0.517791,-2.008641 -1.379288,-5.497453 -1.914437,-7.752915 -0.535149,-2.255462 -1.082173,-4.279449 -1.215607,-4.497749 -0.252058,-0.412368 -2.724375,0.0611 -9.881211,1.892346 -2.156851,0.55188 -5.686243,1.418612 -7.843094,1.926071 -2.156851,0.507459 -4.157601,1.04896 -4.446112,1.203335 -0.290673,0.155532 4.310718,2.207053 10.319861,4.601089 5.964434,2.376224 11.866092,4.75358 13.114795,5.283012 1.248703,0.529433 2.391166,0.970318 2.538806,0.979745 0.14764,0.0094 -0.155211,-1.626293 -0.673001,-3.634934 z"
       id="path28"
       sodipodi:nodetypes="sssssssssccssssssssssssssssssssscsssssssssssssssscssssssssssssscsscsssssssssssccssssssssssssssssssssssscsssssssscsssscssccsscssssssssssssssssscsssscccsssssscsscssssscsssssssssssscccssssssscscssscssssssscssssssscsccsscsscssssccsccssssscssssssssssssssssssssssssssssscssssscsssssssssssssscs" /><path
       style="fill:#ffffff;stroke-width:1.81013"
       d="m 27.604457,325.49406 c -2.240034,-1.11888 -4.072788,-2.72439 -4.072788,-3.56782 0,-0.84345 -1.990971,-1.53352 -4.424382,-1.53352 -2.43341,0 -6.665913,-1.92808 -9.4055624,-4.28463 L 4.7205434,311.82346 17.126023,268.59222 c 14.304606,-49.8494 14.80376,-51.18216 18.814638,-50.2356 1.729058,0.40806 14.594582,-8.03101 30.689673,-20.13072 15.241914,-11.45833 28.071469,-20.83332 28.510119,-20.83332 0.43865,0 8.016157,-5.70191 16.838917,-12.6709 8.82275,-6.96899 16.64474,-12.6709 17.38219,-12.6709 0.73745,0 5.19627,-3.46187 9.90849,-7.69304 4.71221,-4.23118 10.94108,-8.88992 13.84192,-10.35276 2.90084,-1.46284 6.72383,-4.10196 8.49554,-5.86471 1.7717,-1.76275 7.54762,-6.47142 12.83538,-10.46372 7.63833,-5.767 11.16128,-7.25872 17.14267,-7.25872 5.4853,0 7.52856,0.73691 7.52856,2.71519 0,1.49336 1.11576,2.71519 2.47948,2.71519 1.36371,0 18.86213,8.14558 38.88541,18.10129 20.02326,9.9557 37.74981,18.10128 39.39234,18.10128 7.35192,0 18.74243,10.35097 20.93424,19.02372 1.28601,5.08858 -6.13014,27.24442 -8.93119,26.68202 -1.23963,-0.24889 -2.26315,0.97295 -2.2745,2.71519 -0.0344,5.28196 -10.76324,39.16659 -13.14276,41.50852 -2.37735,2.33979 -232.44371,83.5852 -240.176281,84.8156 -2.531988,0.4029 -6.436368,-0.1829 -8.676402,-1.30177 z"
       id="path29"
       transform="matrix(0.26458333,0,0,0.26458333,36.354512,76.442923)" /><path
       style="fill:#ffffff;stroke-width:1.81013"
       d="m 115.74642,393.04546 c -7.92235,-1.97355 -81.308227,-37.23046 -79.937091,-38.40432 2.411042,-2.06415 30.235249,-12.54643 33.277237,-12.53662 1.659283,0.005 3.288399,-0.63207 3.620257,-1.41651 0.801427,-1.8944 46.926647,-18.92354 48.094137,-17.75605 0.49974,0.49974 1.95053,-0.13328 3.22396,-1.40672 1.27344,-1.27344 9.93297,-4.97492 19.24339,-8.22552 9.31043,-3.2506 19.37172,-6.98228 22.35843,-8.29262 9.91558,-4.35021 37.93629,-14.81061 42.97994,-16.04482 2.73199,-0.66854 4.76839,-2.2194 4.52533,-3.44636 -0.63145,-3.18756 12.2733,-1.86692 21.27961,2.17772 3.98228,1.7884 10.11514,5.60088 13.6286,8.47218 5.70048,4.65862 6.32834,6.02682 5.8331,12.71115 -0.30524,4.11983 -1.77188,11.85813 -3.25922,17.19622 -1.48733,5.33809 -4.75973,17.8512 -7.27201,27.8069 -2.5123,9.95571 -5.78711,22.29609 -7.27739,27.42308 l -2.70958,9.32179 -23.90848,1.0335 c -43.57454,1.88361 -89.00705,2.55612 -93.70022,1.387 z"
       id="path30"
       transform="matrix(0.26458333,0,0,0.26458333,36.354512,76.442923)" /><path
       style="fill:#ffffff;stroke-width:1.81013"
       d="m 343.094,403.45095 c -0.49757,-1.37914 -6.22183,-16.54175 -12.72056,-33.69469 -6.49873,-17.15294 -11.66119,-31.81498 -11.47212,-32.58231 0.18908,-0.76733 -1.37522,-5.06065 -3.47622,-9.54072 -6.66158,-14.20489 -29.76084,-74.88335 -30.6926,-80.62506 -0.57002,-3.51264 2.05366,-15.33711 7.23048,-32.58652 8.14222,-27.13028 11.94012,-40.36298 15.67684,-54.62152 1.73261,-6.61129 2.9055,-7.90554 8.73472,-9.63844 5.74159,-1.70685 158.45874,-27.07409 158.96203,-26.40455 0.31623,0.42068 -60.39341,209.78737 -64.62876,222.88244 -2.25399,6.96899 -4.31225,13.89273 -4.5739,15.38609 -1.13314,6.46726 -8.72872,31.85697 -10.0805,33.69601 -1.56933,2.13501 -24.27854,7.06727 -41.68364,9.05334 -8.00415,0.91335 -10.57756,0.61117 -11.27577,-1.32407 z"
       id="path31"
       transform="matrix(0.26458333,0,0,0.26458333,36.354512,76.442923)" /><path
       style="fill:#ffffff;stroke-width:1.81013"
       d="m 238.52542,423.1175 c -0.22633,-9.20903 -0.24336,-20.4092 -0.0378,-24.88926 0.47605,-10.37676 20.83029,-85.4756 24.81491,-91.5569 2.54495,-3.88409 4.14786,-4.49411 10.57949,-4.02625 7.04566,0.51253 7.99186,1.24191 13.42045,10.34504 3.21219,5.3865 7.15454,13.93936 8.76077,19.00635 1.60623,5.06699 4.75901,13.2855 7.00619,18.26336 2.24718,4.97785 6.04603,14.75254 8.44189,21.72154 2.39586,6.96899 4.84041,13.07817 5.43234,13.57596 1.6318,1.37227 14.85125,36.26456 14.04486,37.07094 -0.86743,0.86743 -85.79735,17.23291 -89.43151,17.23291 -2.06814,0 -2.70672,-3.52698 -3.03156,-16.74369 z"
       id="path32"
       transform="matrix(0.26458333,0,0,0.26458333,36.354512,76.442923)" /><path
       style="fill:#ffffff;stroke-width:1.81013"
       d="m 193.57423,440.95901 c -42.09513,-14.71301 -70.4855,-25.35547 -70.4855,-26.42229 0,-0.97337 89.08105,-11.08432 96.38933,-10.94045 2.29898,0.0453 3.16773,1.55141 3.16773,5.49193 0,4.95408 -5.23225,38.3667 -6.15884,39.32976 -0.21759,0.22616 -10.52832,-3.13037 -22.91272,-7.45895 z"
       id="path33"
       transform="matrix(0.26458333,0,0,0.26458333,36.354512,76.442923)" /><path
       style="fill:#ffffff;stroke-width:1.81013"
       d="m 279.66483,130.02164 c -13.93799,-7.03386 -25.61332,-13.50766 -25.94517,-14.3862 -0.33186,-0.87854 -1.96098,-1.60825 -3.62026,-1.62156 -1.65928,-0.0133 -11.16246,-4.07521 -21.11816,-9.02644 -9.95571,-4.95122 -19.08116,-9.013115 -20.27878,-9.026429 -5.29677,-0.05889 -11.94423,-4.866472 -14.91817,-10.789152 -3.90855,-7.783974 -6.56605,-18.932518 -9.94698,-41.728779 -2.10647,-14.203097 -2.13652,-17.622679 -0.17266,-19.646338 2.83983,-2.926307 50.06117,-11.025255 64.62742,-11.084273 11.98121,-0.04854 15.98667,1.150149 15.98667,4.784242 0,1.445597 0.74794,2.166102 1.6621,1.601123 0.91416,-0.564979 37.36561,16.798588 81.00324,38.585705 43.63763,21.787118 85.04305,42.25942 92.01204,45.494001 6.969,3.23459 14.7073,7.31362 17.19622,9.06452 2.48893,1.75089 6.15444,3.55763 8.14558,4.01497 3.32332,0.76332 3.24636,0.98661 -0.93846,2.72239 -6.70734,2.78207 -139.78264,24.03692 -149.79859,23.9259 -6.8924,-0.0764 -13.47742,-2.57933 -33.89604,-12.88368 z"
       id="path34"
       transform="matrix(0.26458333,0,0,0.26458333,36.354512,76.442923)" /><path
       style="fill:#ffffff;stroke-width:0.452532"
       d="m 258.62209,290.153 c -6.93168,-3.68533 -16.19783,-9.18424 -18.21442,-10.80916 -2.5597,-2.06256 -2.5597,-3.28027 0,-5.15389 4.22497,-3.09254 26.96741,-13.77964 27.69816,-13.01589 0.0859,0.0898 -0.11161,1.5887 -0.43889,3.33095 -0.73202,3.89673 -2.78838,19.54957 -3.19548,24.3236 -0.24094,2.82555 -0.44263,3.50543 -1.03782,3.49843 -0.40632,-0.005 -2.57152,-0.98309 -4.81155,-2.17404 z"
       id="path35"
       transform="matrix(0.26458333,0,0,0.26458333,36.354512,76.442923)" /><path
       style="fill:#ffffff;stroke-width:0.452532"
       d="m 268.57282,292.03984 c -0.51249,-0.51248 -0.67066,-1.19012 -0.50175,-2.14953 0.21584,-1.22596 0.70646,-5.07106 1.45749,-11.42256 0.16399,-1.38693 0.45772,-1.93756 1.12691,-2.11256 0.85897,-0.22463 0.89111,-0.4981 0.63057,-5.36464 -0.35445,-6.62058 0.0158,-7.27588 2.5136,-4.44915 2.05637,2.32713 8.57418,14.93409 9.67029,18.70457 0.40266,1.38511 0.93308,2.64258 1.1787,2.79438 0.94781,0.58578 0.3442,1.08736 -2.38174,1.97914 -2.51877,0.824 -11.28703,2.76877 -12.48339,2.76877 -0.25425,0 -0.79905,-0.33679 -1.21068,-0.74842 z"
       id="path36"
       transform="matrix(0.26458333,0,0,0.26458333,36.354512,76.442923)" /><path
       style="fill:#ffffff;stroke-width:0.452532"
       d="m 223.18416,449.22947 c -0.53734,-0.57197 -1.09762,-1.64317 -1.24508,-2.38044 -0.50139,-2.50693 4.05887,-27.71724 5.2246,-28.88297 1.1004,-1.10039 2.00722,5.21118 2.81253,19.57547 l 0.54227,9.67244 -1.66704,1.52773 c -2.05045,1.87909 -4.18741,2.06302 -5.66728,0.48777 z"
       id="path37"
       transform="matrix(0.26458333,0,0,0.26458333,36.354512,76.442923)" /></g></svg>
